<svg width="17" height="16" viewBox="0 0 17 16" fill="none" xmlns="http://www.w3.org/2000/svg">
<g opacity="0.8" clip-path="url(#clip0_1_152)">
<path d="M5.69994 14.5001C11.7362 14.5001 15.0387 9.49793 15.0387 5.16136C15.0387 5.02074 15.0356 4.87699 15.0293 4.73636C15.6718 4.27176 16.2262 3.69629 16.6665 3.03699C16.0682 3.30319 15.4329 3.47704 14.7824 3.55261C15.4674 3.14206 15.9802 2.4971 16.2259 1.7373C15.5815 2.11916 14.8769 2.38853 14.1421 2.53386C13.6471 2.00783 12.9925 1.65953 12.2796 1.54282C11.5668 1.42611 10.8353 1.54749 10.1983 1.88819C9.56136 2.22888 9.05437 2.76993 8.75574 3.42766C8.4571 4.0854 8.38346 4.8232 8.54619 5.52699C7.2415 5.46152 5.96513 5.12259 4.79983 4.53219C3.63452 3.94178 2.6063 3.11308 1.78182 2.0998C1.36277 2.82228 1.23454 3.67722 1.42319 4.49085C1.61184 5.30448 2.10321 6.01575 2.79744 6.48011C2.27626 6.46357 1.76649 6.32324 1.31025 6.07074V6.11136C1.30979 6.86956 1.5719 7.60451 2.05204 8.1913C2.53219 8.77809 3.20072 9.1805 3.944 9.33011C3.46121 9.46221 2.95449 9.48145 2.46307 9.38636C2.67281 10.0384 3.08089 10.6087 3.63035 11.0177C4.17982 11.4266 4.84325 11.6539 5.52807 11.6676C4.36545 12.5809 2.92929 13.0762 1.45088 13.0739C1.1887 13.0735 0.92677 13.0574 0.666504 13.0257C2.16841 13.9893 3.91552 14.501 5.69994 14.5001Z" fill="white"/>
</g>
<defs>
<clipPath id="clip0_1_152">
<rect width="16" height="16" fill="white" transform="translate(0.666504)"/>
</clipPath>
</defs>
</svg>
